<?xml version="1.0" standalone="no"?><!DOCTYPE svg PUBLIC "-//W3C//DTD SVG 1.1//EN" "http://www.w3.org/Graphics/SVG/1.1/DTD/svg11.dtd"><svg t="1542948770338" class="icon" style="" viewBox="0 0 1024 1024" version="1.1" xmlns="http://www.w3.org/2000/svg" p-id="5732" xmlns:xlink="http://www.w3.org/1999/xlink" width="200" height="200"><defs><style type="text/css"></style></defs><path d="M962.632197 0H60.164512a60.164512 60.164512 0 0 0-60.164512 60.164512v902.467685a60.164512 60.164512 0 0 0 60.164512 60.164513h902.467685a60.164512 60.164512 0 0 0 60.164513-60.164513v-902.467685a60.164512 60.164512 0 0 0-60.164513-60.164512z m0 962.632197H60.164512V257.20329h902.467685zM60.164512 197.038778V60.164512h902.467685v136.874266z" fill="" p-id="5733"></path><path d="M680.159812 98.6698h60.164512v60.164513h-60.164512zM767.398355 98.6698h60.164512v60.164513h-60.164512zM854.636898 98.6698h60.164512v60.164513h-60.164512zM195.233843 888.629847v30.082256h481.316098v-26.472385h150.411281v-30.082256a240.658049 240.658049 0 0 0-107.092832-206.364278 143.793184 143.793184 0 0 0-123.938895-251.788484 180.493537 180.493537 0 1 0-263.821387 229.527615 289.391304 289.391304 0 0 0-136.874265 255.097532z m571.562867-56.554641h-95.661575a300.822562 300.822562 0 0 0-63.47356-140.183314 111.905993 111.905993 0 0 1 21.057579-2.105758c68.286722-0.300823 125.142186 62.27027 136.573443 142.289072zM628.719154 460.258519a84.53114 84.53114 0 1 1-57.156287 144.996475 177.184489 177.184489 0 0 0 44.220917-143.492362 85.433608 85.433608 0 0 1 12.93537-1.504113z m-193.128085-95.360752a120.329025 120.329025 0 1 1-120.329024 120.329025 120.329025 120.329025 0 0 1 120.329024-120.329025z m0 300.822562c90.246769 0 166.655699 83.929495 178.387779 192.225617H256.902468c12.032902-107.694477 87.539365-191.623972 178.688601-191.623972z" fill="" p-id="5734"></path></svg>