<?xml version="1.0" standalone="no"?><!DOCTYPE svg PUBLIC "-//W3C//DTD SVG 1.1//EN" "http://www.w3.org/Graphics/SVG/1.1/DTD/svg11.dtd"><svg t="1544931994861" class="icon" style="" viewBox="0 0 1024 1024" version="1.1" xmlns="http://www.w3.org/2000/svg" p-id="2926" xmlns:xlink="http://www.w3.org/1999/xlink" width="200" height="200"><defs><style type="text/css"></style></defs><path d="M661.522 354.351l61.235-61.235 34.294 34.295-61.234 61.235zM508.1 724.5h48.5v86.7h-48.5zM661.492 681.214l34.295-34.295 61.234 61.235-34.294 34.295zM837.5 542v-48.5h-86.7V542h86.7zM578.1 546.2V301.9h-56V523L404.4 640.8l39.6 39.5z" p-id="2927" fill="#ffffff"></path><path d="M553.6 106.1v56c192.9 0 349.9 157 349.9 349.9 0 192.9-157 349.9-349.9 349.9-173.8 0-318.3-127.3-345.3-293.7l54.1 54.1 39.6-39.6-79.1-79.1-39.6-39.6-39.6 39.6-79.3 79.1 39.6 39.6 48.4-48.4c29.9 194.5 198.4 344 401.1 344 223.8 0 405.9-182.1 405.9-405.9s-182-405.9-405.8-405.9z" p-id="2928" fill="#ffffff"></path></svg>